<svg width="30" height="30" viewBox="0 0 30 30" fill="none" xmlns="http://www.w3.org/2000/svg">
<g id="Group 3">
<rect id="Rectangle 1448" width="30" height="30" rx="5" fill="#F2DEFF"/>
<g id="Group">
<path id="Vector" d="M7 10.6667C7 10.2246 7.17559 9.80072 7.48816 9.48816C7.80072 9.17559 8.22464 9 8.66667 9H20.3333C20.7754 9 21.1993 9.17559 21.5118 9.48816C21.8244 9.80072 22 10.2246 22 10.6667V19C22 19.442 21.8244 19.866 21.5118 20.1785C21.1993 20.4911 20.7754 20.6667 20.3333 20.6667H8.66667C8.22464 20.6667 7.80072 20.4911 7.48816 20.1785C7.17559 19.866 7 19.442 7 19V10.6667Z" stroke="#77429A" stroke-width="2" stroke-linecap="round" stroke-linejoin="round"/>
<path id="Vector_2" d="M7 10.666L14.5 15.666L22 10.666" stroke="#77429A" stroke-width="2" stroke-linecap="round" stroke-linejoin="round"/>
</g>
</g>
</svg>
