<svg width="30" height="30" viewBox="0 0 30 30" fill="none" xmlns="http://www.w3.org/2000/svg">
<g id="Group 2">
<rect id="Rectangle 1447" width="30" height="30" rx="5" fill="#F2DEFF"/>
<path id="Vector" d="M21.1349 16.721L17.7389 15.1987L17.7259 15.1929C17.5052 15.0977 17.2641 15.0594 17.0248 15.0815C16.7854 15.1035 16.5554 15.1852 16.3557 15.3191C16.3277 15.3378 16.3008 15.358 16.275 15.3797L14.666 16.7499C13.7285 16.2415 12.76 15.2809 12.2508 14.3549L13.6254 12.7207C13.6475 12.6943 13.668 12.6666 13.6867 12.6378C13.8171 12.4388 13.8962 12.2108 13.9171 11.9738C13.938 11.7369 13.9 11.4985 13.8064 11.2798C13.8042 11.2756 13.8022 11.2713 13.8006 11.2668L12.279 7.86509C12.1541 7.5806 11.9409 7.34389 11.671 7.18998C11.4011 7.03607 11.0888 6.97314 10.7804 7.0105C9.7335 7.14802 8.77249 7.66191 8.07681 8.4562C7.38113 9.25048 6.99837 10.2708 7.00001 11.3267C7.00001 17.2122 11.7878 22 17.6733 22C18.7292 22.0016 19.7495 21.6189 20.5438 20.9232C21.3381 20.2275 21.852 19.2665 21.9895 18.2196C22.0269 17.9112 21.9639 17.5989 21.81 17.329C21.6561 17.0591 21.4194 16.8459 21.1349 16.721ZM17.6733 20.2692C15.3025 20.2663 13.0296 19.3233 11.3532 17.6468C9.67675 15.9704 8.73367 13.6975 8.73081 11.3267C8.72916 10.7292 8.932 10.1491 9.30564 9.68288C9.67928 9.21662 10.2012 8.89225 10.7847 8.76366L12.1419 11.7926L10.7602 13.4383C10.7378 13.4649 10.7171 13.4928 10.6982 13.5219C10.562 13.73 10.4819 13.9698 10.4657 14.218C10.4495 14.4662 10.4978 14.7143 10.6058 14.9383C11.2852 16.3287 12.685 17.7191 14.0898 18.3999C14.3153 18.5068 14.5647 18.5534 14.8136 18.5351C15.0625 18.5167 15.3024 18.4341 15.5098 18.2954C15.5377 18.2765 15.5644 18.2561 15.5898 18.2341L17.2074 16.8588L20.2363 18.2153C20.1078 18.7988 19.7834 19.3207 19.3171 19.6944C18.8509 20.068 18.2708 20.2708 17.6733 20.2692Z" fill="#77429A"/>
</g>
</svg>
